<svg id="Capa_1" enable-background="new 0 0 512 512" height="512" viewBox="0 0 512 512" width="512" xmlns="http://www.w3.org/2000/svg"><g><path d="m361 167h30v30h-30z"/><path d="m361 287h30v30h-30z"/><path d="m121 167h30v30h-30z"/><path d="m361 407h30v30h-30z"/><path d="m121 287h30v30h-30z"/><path d="m121 407h30v30h-30z"/><path d="m241 167h30v30h-30z"/><path d="m241 287h30v30h-30z"/><path d="m241 407h30v105h-30z"/><path d="m31 92v420h180v-135h90v135h180v-420zm60 45h90v90h-90zm0 120h90v90h-90zm0 120h90v90h-90zm240-240h90v90h-90zm0 120h90v90h-90zm0 120h90v90h-90zm-120-240h90v90h-90zm0 210v-90h90v90z"/><path d="m497.48 62-30.141-62h-422.677l-30.142 62z"/></g></svg>