<svg id="Capa_1" enable-background="new 0 0 512 512" height="512" viewBox="0 0 512 512" width="512" xmlns="http://www.w3.org/2000/svg"><g><g><path d="m46.151 61.835h419.956v442.665h-419.956z" fill="#fff5f5"/><path d="m46.151 61.835h48.244v442.665h-48.244z" fill="#eee1dd"/><path d="m478.62 57.208-25.061-46.728c-.984-1.835-2.898-2.98-4.981-2.98h-384.899c-2.082 0-3.996 1.145-4.98 2.98l-25.061 46.728c-2.019 3.765.708 8.322 4.981 8.322h435.021c4.271 0 6.999-4.557 4.98-8.322z" fill="#938493"/><path d="m81.638 57.208 25.061-46.728c.984-1.835 2.898-2.98 4.98-2.98h-48c-2.082 0-3.996 1.145-4.98 2.98l-25.061 46.728c-2.019 3.765.708 8.322 4.98 8.322h48c-4.271 0-6.999-4.557-4.98-8.322z" fill="#7b6c79"/><path d="m322.049 352.028h101.419v152.472h-101.419z" fill="#aa8080"/><path d="m322.049 352.028h37.579v152.472h-37.579z" fill="#8b5e5e"/><path d="m418.311 322.884h-91.105c-2.848 0-5.157 2.309-5.157 5.157v25.987h101.419v-25.987c0-2.848-2.309-5.157-5.157-5.157z" fill="#c3a2a2"/><path d="m364.785 322.884h-37.579c-2.848 0-5.157 2.309-5.157 5.157v25.987h37.579v-25.987c0-2.848 2.309-5.157 5.157-5.157z" fill="#aa8080"/><path d="m322.049 128.515h101.419v152.472h-101.419z" fill="#aa8080"/><path d="m322.049 128.515h37.579v152.472h-37.579z" fill="#8b5e5e"/><path d="m418.311 99.371h-91.105c-2.848 0-5.157 2.309-5.157 5.157v25.987h101.419v-25.987c0-2.848-2.309-5.157-5.157-5.157z" fill="#c3a2a2"/><path d="m364.785 99.371h-37.579c-2.848 0-5.157 2.309-5.157 5.157v25.987h37.579v-25.987c0-2.848 2.309-5.157 5.157-5.157z" fill="#aa8080"/><path d="m88.79 352.396h185.958v31.785h-185.958z" fill="#aa8080"/><path d="m88.79 352.396h31.94v31.785h-31.94z" fill="#8b5e5e"/><path d="m88.79 412.934h185.958v31.785h-185.958z" fill="#aa8080"/><path d="m88.79 412.934h31.94v31.785h-31.94z" fill="#8b5e5e"/><path d="m88.79 473.473h185.958v31.785h-185.958z" fill="#aa8080"/><path d="m88.79 473.473h31.94v31.785h-31.94z" fill="#8b5e5e"/><path d="m94.395 132.339v104.703c0 3.718 3.015 6.733 6.733 6.733h54.204c3.719 0 6.733-3.015 6.733-6.733v-104.703c-10.006 0-57.664 0-67.67 0z" fill="#80b4fb"/><path d="m121.73 237.042v-104.703c-12.055 0-23.088 0-27.335 0v104.703c0 3.718 3.015 6.733 6.733 6.733h27.335c-3.718 0-6.733-3.015-6.733-6.733z" fill="#61a2f9"/><path d="m155.332 107.996h-54.204c-3.718 0-6.733 3.015-6.733 6.733v19.61h67.67v-19.61c0-3.718-3.014-6.733-6.733-6.733z" fill="#9dc6fb"/><path d="m127.463 107.996h-26.335c-3.718 0-6.733 3.015-6.733 6.733v19.61h26.335v-19.61c0-3.718 3.014-6.733 6.733-6.733z" fill="#80b4fb"/><path d="m269.973 322.884h-176.407c-2.637 0-4.776 2.138-4.776 4.775v25.494h185.958v-25.493c0-2.638-2.138-4.776-4.775-4.776z" fill="#c3a2a2"/><path d="m125.505 322.884h-31.94c-2.637 0-4.775 2.138-4.775 4.775v25.494h31.94v-25.493c0-2.638 2.138-4.776 4.775-4.776z" fill="#aa8080"/><path d="m88.79 383.423h185.958v30.269h-185.958z" fill="#c3a2a2"/><path d="m88.79 383.423h31.94v30.269h-31.94z" fill="#aa8080"/><path d="m88.79 443.961h185.958v30.269h-185.958z" fill="#c3a2a2"/><path d="m88.79 443.961h31.94v30.269h-31.94z" fill="#aa8080"/><path d="m201.474 132.339v104.703c0 3.718 3.015 6.733 6.733 6.733h54.204c3.719 0 6.733-3.015 6.733-6.733v-104.703c-10.006 0-57.665 0-67.67 0z" fill="#80b4fb"/><path d="m228.809 237.042v-104.703c-12.055 0-23.088 0-27.335 0v104.703c0 3.718 3.015 6.733 6.733 6.733h27.335c-3.719 0-6.733-3.015-6.733-6.733z" fill="#61a2f9"/><path d="m262.411 107.996h-54.204c-3.718 0-6.733 3.015-6.733 6.733v19.61h67.67v-19.61c0-3.718-3.015-6.733-6.733-6.733z" fill="#9dc6fb"/><path d="m234.542 107.996h-26.335c-3.718 0-6.733 3.015-6.733 6.733v19.61h26.335v-19.61c0-3.718 3.014-6.733 6.733-6.733z" fill="#80b4fb"/></g><g><path d="m389.609 431.72h6.336c4.143 0 7.5-3.357 7.5-7.5s-3.357-7.5-7.5-7.5h-6.336c-4.143 0-7.5 3.357-7.5 7.5s3.358 7.5 7.5 7.5z"/><path d="m395.945 193.206h-6.336c-4.143 0-7.5 3.357-7.5 7.5s3.357 7.5 7.5 7.5h6.336c4.143 0 7.5-3.357 7.5-7.5s-3.357-7.5-7.5-7.5z"/><path d="m208.077 100.496c-7.848 0-14.232 6.385-14.232 14.233v122.312c0 7.849 6.385 14.233 14.232 14.233h54.205c7.848 0 14.232-6.385 14.232-14.233 0-3.816 0-112.996 0-122.312 0-7.849-6.385-14.233-14.232-14.233zm19.602 135.779h-18.835v-94.437h18.835zm33.835 0h-18.835v-94.437h18.835zm0-109.436c-16.368 0-36.332 0-52.67 0v-11.343h52.67z"/><path d="m100.999 100.496c-7.849 0-14.233 6.385-14.233 14.233v122.312c0 7.849 6.385 14.233 14.233 14.233h54.204c7.849 0 14.233-6.385 14.233-14.233 0-3.816 0-112.996 0-122.312 0-7.849-6.385-14.233-14.233-14.233zm19.602 135.779h-18.836v-94.437h18.836zm33.835 0h-18.835v-94.437h18.835zm0-109.436c-16.368 0-36.333 0-52.671 0v-11.343h52.671z"/><path d="m465.978 167.118c4.143 0 7.5-3.357 7.5-7.5v-86.588h.032c4.668 0 8.887-2.392 11.284-6.397s2.513-8.854.306-12.969v-.001l-25.062-46.73c-2.296-4.277-6.736-6.933-11.589-6.933h-384.898c-4.854 0-9.295 2.657-11.59 6.936l-25.061 46.727c-2.207 4.114-2.093 8.962.304 12.969 2.397 4.006 6.617 6.398 11.286 6.398h.032v200.48c-3.927.239-7.04 3.49-7.04 7.477s3.113 7.238 7.04 7.477v208.56c-3.927.239-7.04 3.49-7.04 7.477 0 4.143 3.357 7.5 7.5 7.5h434.035c4.143 0 7.5-3.357 7.5-7.5 0-3.987-3.112-7.237-7.039-7.477v-208.56c3.927-.239 7.039-3.49 7.039-7.477s-3.112-7.237-7.039-7.477v-78.891c0-4.143-3.357-7.5-7.5-7.5s-7.5 3.357-7.5 7.5v78.868h-27.64c0-9.214 0-162.186 0-168.958 0-6.979-5.678-12.657-12.657-12.657h-91.104c-6.979 0-12.657 5.678-12.657 12.657v168.958h-260.898v-200.457h404.956v86.588c0 4.143 3.358 7.5 7.5 7.5zm-198.859 329.882h-170.958v-15.27h170.958zm0-30.27h-170.958v-15.269h170.958zm0-30.268h-170.958v-15.27h170.958zm0-30.27h-170.958v-15.27h170.958zm0-30.269h-170.958v-15.27h170.958zm148.72 121.077h-86.419v-135.472h86.419zm0-150.472h-86.419v-16.144h86.419zm-86.419-239.657h86.419v16.144h-86.419zm0 31.144h86.419v135.472h-86.419zm129.058 150.471v208.514h-27.64c0-9.214 0-162.187 0-168.959 0-6.979-5.678-12.656-12.657-12.656h-91.104c-6.979 0-12.657 5.678-12.657 12.656v168.959h-32.301c0-33.829 0-135.252 0-169.34 0-6.769-5.507-12.275-12.275-12.275h-70.704c-4.143 0-7.5 3.357-7.5 7.5s3.357 7.5 7.5 7.5h67.979v15.269h-170.958v-15.269h67.979c4.143 0 7.5-3.357 7.5-7.5s-3.357-7.5-7.5-7.5h-70.704c-6.769 0-12.275 5.507-12.275 12.275v169.34h-27.639v-208.514zm-416.899-230.456 23.078-43.03h382.687l23.078 43.03c-4.567 0-424.428 0-428.843 0z"/></g></g></svg>