<?xml version="1.0" encoding="iso-8859-1"?>
<!-- Generator: Adobe Illustrator 19.0.0, SVG Export Plug-In . SVG Version: 6.00 Build 0)  -->
<svg version="1.1" id="Capa_1" xmlns="http://www.w3.org/2000/svg" xmlns:xlink="http://www.w3.org/1999/xlink" x="0px" y="0px"
	 viewBox="0 0 490.667 490.667" style="enable-background:new 0 0 490.667 490.667;" xml:space="preserve">
<g>
	<g>
		<path d="M92.011,109.014L61.44,84.566C81.11,80.768,96,63.424,96,42.667C96,19.136,76.864,0,53.334,0h-32
			c-5.888,0-10.667,4.779-10.667,10.667v106.667c0,5.888,4.779,10.667,10.667,10.667S32,123.222,32,117.334V88.32l46.656,37.355
			c1.984,1.557,4.331,2.325,6.677,2.325c3.115,0,6.229-1.365,8.341-3.989C97.344,119.403,96.619,112.704,92.011,109.014z M32,64
			V21.334h21.333c11.776,0,21.333,9.579,21.333,21.333C74.667,54.422,65.11,64,53.334,64H32z"/>
	</g>
</g>
<g>
	<g>
		<path d="M194.475,0.278c-4.928-1.109-9.792,1.173-12.011,5.611l-21.333,42.667c-2.624,5.269-0.512,11.691,4.757,14.315
			c5.291,2.624,11.691,0.533,14.315-4.757l1.131-2.261v61.483c0,5.888,4.779,10.667,10.667,10.667s10.667-4.779,10.667-10.667
			V10.667C202.667,5.718,199.275,1.408,194.475,0.278z"/>
	</g>
</g>
<g>
	<g>
		<path d="M341.334,106.667h-38.251l36.949-36.971C347.648,62.102,352,51.563,352,40.832C352,18.304,333.696,0,311.168,0h-3.669
			c-22.528,0-40.832,18.304-40.832,40.832v12.501c0,5.888,4.779,10.667,10.667,10.667S288,59.222,288,53.334V40.832
			c0-10.752,8.747-19.499,19.499-19.499h3.669c10.752,0,19.499,8.747,19.499,19.499c0,5.12-2.091,10.155-5.717,13.781
			l-55.168,55.168c-3.029,3.051-3.947,7.637-2.304,11.627c1.643,3.989,5.547,6.592,9.856,6.592h64
			c5.888,0,10.667-4.779,10.667-10.667S347.222,106.667,341.334,106.667z"/>
	</g>
</g>
<g>
	<g>
		<path d="M480,32c0-17.643-14.357-32-32-32h-21.333c-17.643,0-32,14.357-32,32c0,5.888,4.779,10.667,10.667,10.667
			C411.222,42.667,416,37.888,416,32s4.8-10.667,10.667-10.667H448c5.867,0,10.667,4.779,10.667,10.667s-4.8,10.667-10.667,10.667
			h-21.333c-5.888,0-10.667,4.779-10.667,10.667S420.779,64,426.667,64H448c5.867,0,10.667,4.779,10.667,10.667V96
			c0,5.888-4.8,10.667-10.667,10.667h-21.333C420.8,106.667,416,101.888,416,96s-4.779-10.667-10.667-10.667
			c-5.888,0-10.667,4.779-10.667,10.667c0,17.643,14.357,32,32,32H448c17.643,0,32-14.357,32-32V74.667
			c0-8.192-3.093-15.659-8.171-21.333C476.907,47.659,480,40.192,480,32z"/>
	</g>
</g>
<g>
	<g>
		<path d="M448,149.334c-5.888,0-10.667,4.779-10.667,10.667v74.667H106.667c-29.419,0-53.333-23.936-53.333-53.333V160
			c0-5.888-4.779-10.667-10.667-10.667S32,154.112,32,160v21.333C32,222.507,65.494,256,106.667,256H448
			c5.888,0,10.667-4.779,10.667-10.667V160C458.667,154.112,453.888,149.334,448,149.334z"/>
	</g>
</g>
<g>
	<g>
		<path d="M320,149.334c-5.888,0-10.667,4.779-10.667,10.667v170.667c0,5.888,4.779,10.667,10.667,10.667
			s10.667-4.779,10.667-10.667V160C330.667,154.112,325.888,149.334,320,149.334z"/>
	</g>
</g>
<g>
	<g>
		<path d="M192,149.334c-5.888,0-10.667,4.779-10.667,10.667v170.667c0,5.888,4.779,10.667,10.667,10.667
			s10.667-4.779,10.667-10.667V160C202.667,154.112,197.888,149.334,192,149.334z"/>
	</g>
</g>
<g>
	<g>
		<path d="M213.334,426.667h-49.216l16.683-49.984c1.856-5.589-1.152-11.627-6.741-13.483c-5.568-1.835-11.605,1.152-13.504,6.741
			l-21.333,64c-1.088,3.264-0.555,6.848,1.472,9.621c1.984,2.795,5.205,4.437,8.64,4.437h64c5.888,0,10.667-4.779,10.667-10.667
			C224,431.446,219.222,426.667,213.334,426.667z"/>
	</g>
</g>
<g>
	<g>
		<path d="M192,405.334c-5.888,0-10.667,4.779-10.667,10.667v64c0,5.888,4.779,10.667,10.667,10.667s10.667-4.779,10.667-10.667v-64
			C202.667,410.112,197.888,405.334,192,405.334z"/>
	</g>
</g>
<g>
	<g>
		<path d="M309.334,405.334h-10.667c-5.867,0-10.667-4.779-10.667-10.667V384h53.333c5.888,0,10.667-4.779,10.667-10.667
			c0-5.888-4.779-10.667-10.667-10.667h-64c-5.888,0-10.667,4.779-10.667,10.667v21.333c0,17.643,14.357,32,32,32h10.667
			c11.776,0,21.333,9.579,21.333,21.333s-9.557,21.333-21.333,21.333S288,459.755,288,448c0-5.888-4.779-10.667-10.667-10.667
			s-10.667,4.779-10.667,10.667c0,23.531,19.136,42.667,42.667,42.667C332.864,490.667,352,471.531,352,448
			S332.864,405.334,309.334,405.334z"/>
	</g>
</g>
<g>
</g>
<g>
</g>
<g>
</g>
<g>
</g>
<g>
</g>
<g>
</g>
<g>
</g>
<g>
</g>
<g>
</g>
<g>
</g>
<g>
</g>
<g>
</g>
<g>
</g>
<g>
</g>
<g>
</g>
</svg>
