<svg id="Layer_6" enable-background="new 0 0 64 64" height="512" viewBox="0 0 64 64" width="512" xmlns="http://www.w3.org/2000/svg"><g><g><path d="m56.5 46h-2.5v4.12l-18.998.76c-1.914.077-3.772-.65-5.126-2.004-1.207-1.207-2.82-1.921-4.525-2.002l-15.351-.731v-4.143h-4c-2.209 0-4 1.791-4 4s1.791 4 4 4h5c1.105 0 2 .895 2 2s-.895 2-2 2h-3c-1.105 0-2 .895-2 2s.895 2 2 2h6c-1.105 0-2 .895-2 2s.895 2 2 2h31c1.657 0 3-1.343 3-3v-2h8.5c3.038 0 5.5-2.462 5.5-5.5s-2.462-5.5-5.5-5.5z" fill="#f0bc5e"/></g><g><path d="m34.729 51.885c.104 0 .208-.002.313-.006l21.998-.88-.08-1.998-1.96.078v-12.079h2v-2.313l-9.476-13.687h-1.6c.698-1.203 1.076-2.569 1.076-4 0-3.673-2.521-6.846-6.005-7.742.003-.087.005-.173.005-.258 0-4.411-3.589-8-8-8-3.38 0-6.321 2.079-7.479 5.169-.5-.112-1.008-.169-1.521-.169-1.255 0-2.431.336-3.451.917-1.58-1.24-3.521-1.917-5.549-1.917-4.65 0-8.488 3.545-8.953 8.076-2.857.458-5.047 2.94-5.047 5.924 0 3.309 2.691 6 6 6h8.507l-8.507 8.588v3.412h2v8.094l-1.952-.093-.096 1.998 18.351.874c1.46.069 2.833.677 3.866 1.71 1.473 1.473 3.484 2.302 5.56 2.302zm12.271-2.486-8 .32v-5.719h8zm6-.24-4 .16v-7.319h-12v7.799l-2.038.082c-.674.026-1.335-.068-1.962-.262v-12.619h20zm1.784-14.159h-18.368l-11.917-12h21.977zm-47.784-12c-2.206 0-4-1.794-4-4s1.794-4 4-4h1v-1c0-3.86 3.141-7 7-7 1.41 0 2.765.426 3.915 1.204-1.184 1.254-1.915 2.94-1.915 4.796h2c0-2.757 2.243-5 5-5 .619 0 1.232.117 1.821.348l1.078.422.262-1.128c.633-2.733 3.034-4.642 5.839-4.642 3.309 0 6 2.691 6 6 0 .277-.024.567-.078.914l-.156 1.012 1.016.132c2.974.387 5.218 2.942 5.218 5.942 0 1.495-.546 2.898-1.537 4h-22.471c-.879 0-1.73.315-2.456.942l-1.048 1.058zm2 11.411 10.898-11.007c.612-.525 1.643-.473 2.15-.036l11.55 11.632h-3.152l-9.446-10.495-9.445 10.495h-2.555zm18.755.589h-13.51l6.755-7.505zm-16.755 2h20v11.545c-.144-.119-.284-.243-.417-.376-.999-1-2.237-1.696-3.583-2.045v-7.124h-12v6.38l-4-.191zm14 8.856-8-.381v-4.475h8z"/><path d="m32.832 55.945c-.812-1.218-2.171-1.945-3.635-1.945h-3.197v2h3.197c.794 0 1.53.395 1.971 1.055.812 1.218 2.171 1.945 3.635 1.945h4.197v-2h-4.197c-.794 0-1.531-.395-1.971-1.055z"/><path d="m10 14h2c0-1.654 1.346-3 3-3v-2c-2.757 0-5 2.243-5 5z"/><path d="m35 9h2c0-2.206-1.794-4-4-4v2c1.103 0 2 .897 2 2z"/></g></g></svg>